<svg xmlns="http://www.w3.org/2000/svg" version="1.0" width="1280.000000pt" height="707.000000pt" viewBox="0 0 1280.000000 707.000000" preserveAspectRatio="xMidYMid meet"><script xmlns=""/>
<metadata>
Created by potrace 1.15, written by Peter Selinger 2001-2017
</metadata>
<g transform="translate(0.000000,707.000000) scale(0.100000,-0.100000)" fill="#000000" stroke="none">
<path d="M925 7059 c-339 -26 -786 -110 -854 -160 -61 -45 -87 -141 -57 -212 17 -43 76 -93 123 -106 21 -6 86 -11 145 -11 217 0 607 -70 751 -134 132 -59 258 -188 332 -341 72 -147 86 -217 92 -456 6 -228 -3 -449 -47 -1249 -42 -765 -50 -927 -50 -1065 0 -436 115 -816 335 -1105 172 -226 401 -428 578 -510 l67 -32 525 -5 525 -6 0 -647 0 -647 -1408 -6 c-1005 -4 -1416 -9 -1437 -17 -40 -15 -73 -47 -97 -94 -42 -82 -2 -193 84 -235 l44 -21 5385 0 c5791 0 5421 -3 5579 50 188 62 462 225 635 378 90 80 225 232 327 372 151 206 235 413 280 685 19 118 16 518 -5 671 -56 404 -189 675 -479 979 -283 297 -603 463 -1023 530 -132 22 -347 22 -444 1 -200 -44 -380 -168 -474 -327 -76 -129 -144 -350 -153 -499 -5 -76 -3 -89 18 -125 32 -54 88 -85 158 -85 104 0 159 57 184 190 52 272 113 388 243 454 169 85 521 46 823 -91 178 -81 402 -271 551 -468 72 -95 160 -271 189 -375 75 -275 86 -677 25 -930 -52 -214 -192 -439 -409 -655 -217 -216 -527 -385 -715 -389 -36 0 -841 0 -1788 2 l-1723 2 0 650 0 650 393 0 c421 0 464 4 585 53 76 31 197 103 285 169 150 112 255 306 308 568 25 123 35 358 20 476 -6 50 -60 289 -120 530 -216 867 -271 1125 -271 1282 0 178 26 245 199 511 49 75 94 154 100 176 17 64 -3 128 -56 176 -35 32 -59 41 -208 78 -201 50 -236 55 -360 54 -309 0 -645 -136 -877 -352 -93 -87 -142 -159 -298 -431 -400 -699 -563 -890 -958 -1124 -190 -111 -323 -145 -599 -153 -546 -15 -1144 103 -1548 305 -440 219 -780 674 -1140 1523 -172 407 -249 550 -410 764 -213 283 -424 461 -721 609 -203 102 -370 152 -586 175 -111 13 -410 12 -573 0z m6475 -6039 l0 -650 -1820 0 -1820 0 0 650 0 650 1820 0 1820 0 0 -650z"/>
</g>
</svg>